<svg width="21" height="21" viewBox="0 0 21 21" fill="none" xmlns="http://www.w3.org/2000/svg">
<path d="M3.98804 0.401611H17.988C18.6724 0.401611 19.3323 0.639682 19.8572 1.06958L20.074 1.26587C20.6272 1.8191 20.9382 2.56942 20.9382 3.35181V5.35181C20.9382 6.21903 20.5643 6.99943 19.9675 7.53931L19.9509 7.55493V18.3167C19.9509 18.8338 19.7453 19.3299 19.3796 19.6956C19.014 20.0612 18.5179 20.2668 18.0007 20.2668H10.3611V20.2659L10.3513 20.2678C10.2316 20.2904 10.1099 20.302 9.98804 20.302H7.98804L7.80542 20.2932C7.74487 20.2875 7.68458 20.2791 7.62476 20.2678L7.61499 20.3167L7.62476 20.2668H3.99878C3.4817 20.2668 2.98551 20.0612 2.61987 19.6956C2.25431 19.3299 2.04858 18.8337 2.04858 18.3167V7.47583L1.99585 7.52759C1.69981 7.25696 1.46127 6.92886 1.29663 6.56274C1.1255 6.18206 1.03726 5.76919 1.03784 5.35181V3.35181C1.03784 2.6674 1.27591 2.00754 1.70581 1.48267L1.9021 1.26587C2.45533 0.712637 3.20565 0.401612 3.98804 0.401611ZM13.9548 7.55103C13.4146 8.03559 12.7138 8.303 11.988 8.302H9.98804C9.23286 8.302 8.54239 8.01803 8.02124 7.55103L7.98804 7.52075L7.95483 7.55103C7.41458 8.03559 6.71377 8.303 5.98804 8.302H3.948V18.3665H6.03784V13.3518C6.03784 12.8346 6.24344 12.3386 6.60913 11.9729C6.97483 11.6072 7.47087 11.4016 7.98804 11.4016H9.98804C10.5052 11.4016 11.0012 11.6072 11.3669 11.9729C11.7326 12.3386 11.9382 12.8346 11.9382 13.3518V18.3665H18.0515V8.302H15.988C15.2329 8.302 14.5424 8.01803 14.0212 7.55103L13.988 7.52075L13.9548 7.55103ZM7.93823 18.3665H9.98804V18.3176H10.0378V13.302H7.93823V18.3665ZM14.988 11.4016H15.988C16.24 11.4016 16.4818 11.5018 16.6599 11.6799C16.8381 11.8581 16.9382 12.0999 16.9382 12.3518V15.3518C16.9382 15.6038 16.8381 15.8455 16.6599 16.0237C16.4818 16.2018 16.24 16.302 15.988 16.302H14.988C14.7361 16.302 14.4943 16.2018 14.3162 16.0237C14.138 15.8455 14.0378 15.6038 14.0378 15.3518V12.3518C14.0378 12.0999 14.138 11.8581 14.3162 11.6799C14.4943 11.5018 14.7361 11.4016 14.988 11.4016ZM3.98804 2.302C3.70956 2.302 3.44276 2.41271 3.24585 2.60962C3.04894 2.80653 2.93823 3.07333 2.93823 3.35181V5.35181C2.93823 5.63028 3.04894 5.89708 3.24585 6.09399C3.44276 6.29091 3.70956 6.40161 3.98804 6.40161H5.98804C6.26651 6.40161 6.53331 6.29091 6.73022 6.09399C6.92714 5.89708 7.03784 5.63028 7.03784 5.35181V2.302H3.98804ZM8.93823 5.35181C8.93823 5.63028 9.04894 5.89708 9.24585 6.09399C9.44276 6.29091 9.70956 6.40161 9.98804 6.40161H11.988C12.2665 6.40161 12.5333 6.29091 12.7302 6.09399C12.9271 5.89708 13.0378 5.63028 13.0378 5.35181V2.302H8.93823V5.35181ZM14.9382 5.35181C14.9382 5.63028 15.0489 5.89708 15.2458 6.09399C15.4428 6.29091 15.7096 6.40161 15.988 6.40161H17.988C18.2665 6.40161 18.5333 6.29091 18.7302 6.09399C18.9271 5.89708 19.0378 5.63028 19.0378 5.35181V3.35181C19.0378 3.07333 18.9271 2.80653 18.7302 2.60962C18.5333 2.41271 18.2665 2.302 17.988 2.302H14.9382V5.35181Z" fill="#181725" stroke="white" stroke-width="0.1"/>
</svg>
