<svg width="46" height="46" viewBox="0 0 46 46" fill="none" xmlns="http://www.w3.org/2000/svg">
<rect x="0.121948" y="0.246155" width="45.67" height="45.6684" rx="17" fill="#53B175"/>
<path d="M31.4569 23.0804C31.4569 23.4562 31.3128 23.8195 31.0433 24.0826C30.7802 24.3519 30.4167 24.5023 30.0408 24.5023H24.3762V30.1648C24.3762 30.5406 24.2258 30.9039 23.9564 31.167C23.6932 31.4301 23.336 31.5804 22.96 31.5804C22.5841 31.5804 22.2206 31.4301 21.9575 31.167C21.688 30.9039 21.5376 30.5406 21.5376 30.1648V24.5023H15.8731C15.4971 24.5023 15.1337 24.3519 14.8705 24.0826C14.6073 23.8195 14.4569 23.4562 14.4569 23.0804C14.4569 22.7046 14.6073 22.3475 14.8705 22.0782C15.1337 21.8151 15.4971 21.6648 15.8731 21.6648H21.5376V16.0023C21.5376 15.6264 21.688 15.2631 21.9575 15.0001C22.2206 14.7307 22.5841 14.5804 22.96 14.5804C23.336 14.5804 23.6932 14.7307 23.9564 15.0001C24.2258 15.2631 24.3762 15.6264 24.3762 16.0023V21.6648H30.0408C30.4167 21.6648 30.7802 21.8151 31.0433 22.0782C31.3128 22.3475 31.4569 22.7046 31.4569 23.0804Z" fill="white"/>
</svg>
