<svg width="20" height="20" viewBox="0 0 20 20" fill="none" xmlns="http://www.w3.org/2000/svg">
<path d="M3.53516 8.93317H4.85352C5.12487 8.93317 5.38673 9.02721 5.59473 9.19781L5.67969 9.27496C5.8988 9.49407 6.02244 9.79127 6.02246 10.1011C6.02246 10.411 5.89882 10.7082 5.67969 10.9273C5.46057 11.1464 5.16336 11.2701 4.85352 11.2701H3.38574V16.8433H16.8701V11.2701H15.4014C15.1304 11.2701 14.869 11.1756 14.6611 11.0054L14.5752 10.9273C14.3561 10.7082 14.2334 10.411 14.2334 10.1011C14.2334 9.79127 14.3561 9.49407 14.5752 9.27496C14.7943 9.05585 15.0915 8.93318 15.4014 8.93317H16.7197C17.2968 8.93317 17.8534 9.13317 18.2959 9.49567L18.4785 9.66071C18.9449 10.1271 19.207 10.76 19.207 11.4195V16.6939C19.2069 17.2708 19.0059 17.8267 18.6436 18.2691L18.4785 18.4517C18.0121 18.9181 17.3793 19.1802 16.7197 19.1802H3.53516C2.95794 19.1802 2.40153 18.9795 1.95898 18.6168L1.77637 18.4517C1.31031 17.9855 1.04894 17.3531 1.04883 16.6939V11.4195C1.04887 10.8424 1.24877 10.2858 1.61133 9.84332L1.77637 9.66071C2.24271 9.19436 2.87566 8.93322 3.53516 8.93317ZM10.1279 1.02106C10.2429 1.02109 10.3572 1.03749 10.4668 1.07086L10.5752 1.10992C10.6813 1.15407 10.7798 1.21388 10.8682 1.28668L10.9531 1.36383L10.9541 1.36481L14.6836 5.09332C14.7649 5.17477 14.8337 5.26755 14.8877 5.36871L14.9365 5.47223C14.9953 5.61416 15.0254 5.76687 15.0254 5.92047C15.0253 6.03548 15.0089 6.14968 14.9756 6.25934L14.9365 6.36774C14.8924 6.47414 14.8326 6.57298 14.7598 6.66168L14.6826 6.74664C14.574 6.85516 14.4456 6.94182 14.3037 7.00055C14.1618 7.05928 14.0091 7.08947 13.8555 7.08942L13.7412 7.08356C13.665 7.07603 13.5899 7.06087 13.5166 7.03864L13.4082 7.00055C13.3019 6.95646 13.2029 6.89655 13.1143 6.82379L13.0293 6.74664L11.5518 5.26715L11.2959 5.01031V12.8121C11.2959 13.1219 11.1731 13.4192 10.9541 13.6382C10.735 13.8573 10.4377 13.98 10.1279 13.98C9.81814 13.98 9.52086 13.8572 9.30176 13.6382C9.08266 13.4191 8.95902 13.1219 8.95898 12.8121V5.01129L8.70312 5.26715L7.22461 6.74664C7.00533 6.96557 6.7083 7.08842 6.39844 7.08844C6.12717 7.08834 5.86524 6.99421 5.65723 6.82379L5.57129 6.74567C5.35201 6.52624 5.22841 6.22873 5.22852 5.91852L5.23438 5.80328C5.25722 5.57359 5.34774 5.35576 5.49414 5.17731L5.57129 5.09137L9.30176 1.36481V1.36383C9.38304 1.2821 9.47593 1.21303 9.57715 1.15875L9.68066 1.10992C9.82232 1.05104 9.97452 1.02106 10.1279 1.02106Z" fill="#181725" stroke="white" stroke-width="0.3"/>
</svg>
